<svg xmlns="http://www.w3.org/2000/svg" viewBox="0 0 446.28 446.28">
	<defs>
		<linearGradient id="vert" x1="0%" y1="0%" x2="0%" y2="100%" gradientUnits="userSpaceOnUse">
			<stop offset="0%" stop-color= "#2abf2a" />
			<stop offset="50%" stop-color= "#24b224" />
			<stop offset="100%" stop-color= "#149814" />
		</linearGradient>
		<style>.color{fill:url(#vert);}</style>
	</defs>
	<title>Logo 24 heures de l'Isere</title>
	<g id="logo" data-name="logo" class="color">
		<path d="M397.43,225.39c16.37-4.27,27.28-14,33.2-29.31,4.82-12.47,5.91-25.55,6.28-38.74a36.92,36.92,0,0,1,.53-4c-.08-.19-.16-.37-.23-.56-9.87,6-19.35,12.59-27.51,20.85-12.38,12.52-18.26,27.17-14.2,44.91C396,220.79,396.77,223,397.43,225.39Z"/>
		<path d="M10.43,189.69C3,199.41-.83,210,.15,222.1c1,11.61,5.55,21.93,11.57,31.66,3.63,5.85,7.68,11.44,12,17.81,1.38-4.09,2.53-7.27,3.54-10.5,3.88-12.42,7-25,5.36-38.17C30.8,208.16,22.64,197.71,10.43,189.69Z"/>
		<path d="M47.18,234.45c-6.3,9.8-9.24,20.11-7.76,31.45a57.2,57.2,0,0,0,6.35,19.33c5.62,10.74,13.18,20,21.64,29.28,3.67-14.47,7-28.46,5.59-43.1C71.31,254.37,62.22,242.51,47.18,234.45Z"/>
		<path d="M366,274.58a166.66,166.66,0,0,1-10.69,33.52A56.11,56.11,0,0,0,375.6,303c11.37-5.09,21.23-12.48,31.2-20.81-4.17-1.21-7.8-2.34-11.46-3.32C385.7,276.25,376,274.31,366,274.58Z"/>
		<path d="M82.89,301.21c2.19,7.7,6.35,14.25,11.56,20.19a88.48,88.48,0,0,0,6.57,6.7A179,179,0,0,1,81.83,282,44.59,44.59,0,0,0,82.89,301.21Z"/>
		<path d="M380.18,238.3c8.15-17,7.05-34.86,5.55-52.8l-.84-.47c-4.45,3.86-9,7.58-13.32,11.6-.85.8-1.69,1.61-2.52,2.42v45.36c0,2.8-.09,5.59-.24,8.36A41.63,41.63,0,0,0,380.18,238.3Z"/>
		<path d="M446.11,230.09c-3.28-.27-6.61-.63-9.95-.82-11.76-.68-23.44-.56-34.67,4.11-12.85,5.33-20.46,15.73-24.93,29.54,13.39,6.4,26.39,6.07,39.05-1.43s22-18.68,30.66-30.7C446.33,230.7,446.2,230.44,446.11,230.09Z"/>
		<path d="M50.29,217.29c8.27,5.09,17.33,7.69,26.76,8.93v-30c-10.46-8.45-22.83-12.2-37.2-9.32-3.19.64-6.29,1.68-9.61,2.59C33.7,201.56,39.94,210.92,50.29,217.29Z"/>
		<path d="M149.57,57.19a69.86,69.86,0,0,1,13.66-9.08,29.23,29.23,0,0,1,12.9-3.06c4,0,7.06,1,9.37,3s3.29,5,3.29,9.29a23.48,23.48,0,0,1-1.69,8.75,40.77,40.77,0,0,1-5.76,9.53c-2.75,3.55-8.76,10.07-17.83,19.37l-31.76,32.1v21.59h91.3V121.9h-51.5l12.72-12c10.65-9.74,18.21-17.37,22.47-22.7a64.32,64.32,0,0,0,9.67-16,45.38,45.38,0,0,0,3.17-16.93,34,34,0,0,0-5.29-18.74,35.14,35.14,0,0,0-14.78-12.71A49.58,49.58,0,0,0,178,18.4a69.78,69.78,0,0,0-16.48,1.81,57.86,57.86,0,0,0-13.69,5.16c-4.14,2.22-9.38,6-15.57,11.29l-1.82,1.56,17.3,20.49Z"/>
		<path d="M275.86,148.71h30.37V121.9h14.89V96.77H306.23V19h-27.8l-55.38,81.56V121.9h52.81ZM253,96.77l20.2-30.53q1.68-2.52,3.2-5.12c0,.55-.05,1.13-.08,1.74-.28,6.66-.42,11.82-.42,15.33V96.77Z"/>
		<polygon points="92.69 158.89 92.69 196.69 101.82 196.69 101.82 180.99 114.81 180.99 114.81 196.69 123.92 196.69 123.92 158.89 114.81 158.89 114.81 173.15 101.82 173.15 101.82 158.89 92.69 158.89"/>
		<polygon points="128.62 196.69 150.99 196.69 150.99 188.91 137.75 188.91 137.75 180.94 150.07 180.94 150.07 173.2 137.75 173.2 137.75 166.63 150.99 166.63 150.99 158.89 128.62 158.89 128.62 196.69"/>
		<path d="M155.39,158.89V183c0,4.35,1.38,7.84,4.11,10.37s6.54,3.78,11.38,3.78a19.44,19.44,0,0,0,8.37-1.69,12.43,12.43,0,0,0,5.51-4.93,14.24,14.24,0,0,0,1.91-7.43V158.89h-9.11v22.93c0,2.64-.51,4.57-1.53,5.75s-2.66,1.73-4.95,1.73-4.08-.57-5.07-1.72-1.52-3.09-1.52-5.71v-23Z"/>
		<path d="M215.75,176.62a10.38,10.38,0,0,0,1.9-6.12c0-3.88-1.29-6.83-3.84-8.77s-6.33-2.84-11.41-2.84H191.09v37.8h9.14v-14h3l8.69,14h10.31l-.78-1.11c-1.6-2.31-5-7.4-10.23-15.16A12.14,12.14,0,0,0,215.75,176.62ZM207,174a8.85,8.85,0,0,1-5,1.09h-1.78v-8.41h1.63a10.19,10.19,0,0,1,5.14,1,3.29,3.29,0,0,1,1.44,3.08A3.66,3.66,0,0,1,207,174Z"/>
		<polygon points="246.61 166.63 246.61 158.89 224.23 158.89 224.23 196.69 246.61 196.69 246.61 188.91 233.37 188.91 233.37 180.94 245.69 180.94 245.69 173.2 233.37 173.2 233.37 166.63 246.61 166.63"/>
		<path d="M270.33,194.2a11.07,11.07,0,0,0,1.77-14.76c-1.34-1.74-3.71-3.41-7.24-5.1h0a48.1,48.1,0,0,1-4.79-2.5,4.52,4.52,0,0,1-1.31-1.25,2.92,2.92,0,0,1,.57-3.54,4.3,4.3,0,0,1,2.89-.85,15,15,0,0,1,3.58.46,34.86,34.86,0,0,1,4.71,1.63l.66.27,3-7.29-.64-.28a38.15,38.15,0,0,0-5.49-1.93,22.24,22.24,0,0,0-5.59-.69c-4,0-7.2,1-9.5,2.93a10.11,10.11,0,0,0-3.53,8.13,10.3,10.3,0,0,0,1.08,4.81,12,12,0,0,0,2.82,3.56,23.41,23.41,0,0,0,5.17,3.12,45.88,45.88,0,0,1,4.62,2.41,6.24,6.24,0,0,1,1.58,1.43,2.51,2.51,0,0,1,.46,1.49,2.66,2.66,0,0,1-1.06,2.32,6.06,6.06,0,0,1-3.48.83,17.77,17.77,0,0,1-4.49-.64,43.36,43.36,0,0,1-6.13-2.28l-1-.45v8.7l.4.2A24,24,0,0,0,260,197.19C264.38,197.19,267.85,196.18,270.33,194.2Z"/>
		<path d="M306.75,158.89H294.62v37.8h11c6.59,0,11.72-1.67,15.25-5s5.34-8.11,5.34-14.28c0-5.8-1.73-10.39-5.15-13.65S312.85,158.89,306.75,158.89Zm-.4,30h-2.6V166.63h3.4c6.49,0,9.64,3.6,9.64,11C316.79,185.22,313.38,188.91,306.35,188.91Z"/>
		<polygon points="352.16 166.63 352.16 158.89 329.79 158.89 329.79 196.69 352.16 196.69 352.16 188.91 338.92 188.91 338.92 180.94 351.24 180.94 351.24 173.2 338.92 173.2 338.92 166.63 352.16 166.63"/>
		<polygon points="133.8 259.79 111.72 259.79 111.72 214.9 98.07 214.9 98.07 271.43 133.8 271.43 133.8 259.79"/>
		<path d="M138.32,214.9l-.13.9c-.76,5-2,11.28-3.71,18.57l-.3,1.29h10.17l.28-.62a115.67,115.67,0,0,0,6.61-18l.11-.45-1.08-1.69Z"/>
		<rect x="156.14" y="214.9" width="13.66" height="56.53"/>
		<path d="M214.85,255.26a15.37,15.37,0,0,0-3-9.63c-2-2.6-5.55-5.1-10.84-7.62h0a68.67,68.67,0,0,1-7.17-3.74,6.83,6.83,0,0,1-2-1.88,3.93,3.93,0,0,1-.54-2.1,4,4,0,0,1,1.38-3.19,6.47,6.47,0,0,1,4.33-1.26,22.72,22.72,0,0,1,5.35.67A53.54,53.54,0,0,1,209.4,229l1,.4,4.53-10.91-1-.41a57.85,57.85,0,0,0-8.21-2.88,33.19,33.19,0,0,0-8.36-1c-6,0-10.77,1.47-14.22,4.38s-5.27,7-5.27,12.16a15.42,15.42,0,0,0,1.61,7.19,18,18,0,0,0,4.23,5.34,35.1,35.1,0,0,0,7.72,4.66,67.65,67.65,0,0,1,6.92,3.6,9.23,9.23,0,0,1,2.35,2.14,3.7,3.7,0,0,1,.7,2.23,3.94,3.94,0,0,1-1.59,3.46,9,9,0,0,1-5.21,1.25,26.36,26.36,0,0,1-6.71-1,63.34,63.34,0,0,1-9.16-3.4l-1.49-.67v13l.59.29a36,36,0,0,0,15.88,3.38c6.52,0,11.71-1.51,15.42-4.48A15.13,15.13,0,0,0,214.85,255.26Z"/>
		<path d="M238.51,201.12H226.85V203l.26.25c1.39,1.35,3.34,3,5.8,5s4.35,3.45,5.63,4.34l.22.16H246v-2l-.2-.25a83.56,83.56,0,0,1-7-9Z"/>
		<polygon points="255.29 259.79 235.49 259.79 235.49 247.87 253.91 247.87 253.91 236.3 235.49 236.3 235.49 226.47 255.29 226.47 255.29 214.9 221.83 214.9 221.83 271.43 255.29 271.43 255.29 259.79"/>
		<path d="M300.64,241.41a15.53,15.53,0,0,0,2.83-9.15c0-5.81-1.93-10.22-5.74-13.11s-9.46-4.25-17.05-4.25H263.76v56.53h13.66V250.55h4.49l13,20.88h15.42l-1.15-1.66c-2.4-3.45-7.55-11.07-15.31-22.67A18.14,18.14,0,0,0,300.64,241.41Zm-13.09-4c-1.55,1.09-4.06,1.64-7.47,1.64h-2.66V226.47h2.44c3.51,0,6.09.5,7.69,1.48,1.45.9,2.16,2.4,2.16,4.61S289,236.41,287.55,237.42Z"/>
		<polygon points="313.32 271.43 346.78 271.43 346.78 259.79 326.98 259.79 326.98 247.87 345.4 247.87 345.4 236.3 326.98 236.3 326.98 226.47 346.78 226.47 346.78 214.9 313.32 214.9 313.32 271.43"/>
		<polygon points="178.08 391.35 178.08 375.46 183.31 375.46 183.31 372.06 168.75 372.06 168.75 375.46 173.99 375.46 173.99 391.35 178.08 391.35"/>
		<path d="M185.47,372.06v12.42a6.77,6.77,0,0,0,2.06,5.22,8.19,8.19,0,0,0,5.78,1.91,9.89,9.89,0,0,0,4.27-.86,6.18,6.18,0,0,0,2.77-2.47,7.15,7.15,0,0,0,1-3.74V372.06h-4.07v11.78a4.93,4.93,0,0,1-.91,3.29,3.63,3.63,0,0,1-2.9,1.05,3.74,3.74,0,0,1-3-1,5,5,0,0,1-.9-3.27V372.06Z"/><polygon points="217.26 387.97 209.44 387.97 209.44 372.06 205.35 372.06 205.35 391.35 217.26 391.35 217.26 387.97"/>
		<polygon points="219.94 372.06 219.94 391.35 231.85 391.35 231.85 387.97 224.03 387.97 224.03 372.06 219.94 372.06"/>
		<rect x="234.53" y="372.06" width="4.09" height="19.29"/>
		<path d="M254.71,391.35h5.2V372.06h-3.68v9.13c0,1,.06,2.81.19,5.31h-.09L248,372.06H242.8v19.29h3.65v-9.08c0-1.1-.08-2.94-.25-5.52h.12Z"/>
		<path d="M273.59,390.1a5,5,0,0,0,1.88-4.11,5.06,5.06,0,0,0-1-3.19,10.43,10.43,0,0,0-3.71-2.59,24.47,24.47,0,0,1-2.59-1.35,2.71,2.71,0,0,1-.8-.78,1.72,1.72,0,0,1-.25-.94,1.79,1.79,0,0,1,.62-1.41,2.58,2.58,0,0,1,1.78-.55,8.18,8.18,0,0,1,2,.26,18.66,18.66,0,0,1,2.55.88l1.32-3.18a19.24,19.24,0,0,0-2.86-1,11.17,11.17,0,0,0-2.87-.36,7.16,7.16,0,0,0-4.79,1.47,5,5,0,0,0-1.74,4,5.08,5.08,0,0,0,.53,2.37,5.91,5.91,0,0,0,1.41,1.78,11.89,11.89,0,0,0,2.65,1.6,22.56,22.56,0,0,1,2.5,1.31,3.38,3.38,0,0,1,.93.85,1.69,1.69,0,0,1,.32,1,1.78,1.78,0,0,1-.72,1.53,3.54,3.54,0,0,1-2.06.51,10.12,10.12,0,0,1-2.48-.35,22.89,22.89,0,0,1-3.3-1.23v3.8a12.32,12.32,0,0,0,5.46,1.16A8.12,8.12,0,0,0,273.59,390.1Z"/>
		<path d="M322.3,303.53a14,14,0,0,0,5.24-12.41,34.79,34.79,0,0,0-3.38-11.44,10.87,10.87,0,0,1-.39-1.18l-.13-.12a43.19,43.19,0,0,0-4.8,9.34c-1.74,5.06-1.42,9.85,2,14.17C321.31,302.45,321.81,303,322.3,303.53Z"/>
		<path d="M312.37,355l.12-.14c-1.28-.82-2.55-1.66-3.86-2.45-3.47-2.09-7.07-3.87-11.24-4a13.82,13.82,0,0,0-10,4,13.76,13.76,0,0,0,10.28,5.74,26.05,26.05,0,0,0,10.23-1.61C309.4,356.1,310.88,355.55,312.37,355Z"/>
		<path d="M326.53,327.66a41.85,41.85,0,0,0,5.81-9.81c-1.3.21-2.44.38-3.58.6a29.55,29.55,0,0,0-9.33,3.09c-4.46,2.53-6.62,6.46-7.06,11.51l.4.09C318.43,334,322.92,331.92,326.53,327.66Z"/>
		<path d="M313.55,294.12c-.71,1.64-1.47,3.26-2.12,4.93-1.34,3.44-2.29,7-1.81,10.72s2.53,6.77,5.52,9.23a13.72,13.72,0,0,0,4.14-9.66c0-5.72-2.66-10.49-5.44-15.2Z"/>
		<path d="M274.18,344.57c-3.32,4-4,8.45-2.53,13.43a14,14,0,0,0,7.52-3.89,17.21,17.21,0,0,0,4.12-7.56,44,44,0,0,0,1.47-9.95c-1,.58-1.87,1.07-2.72,1.6A30.55,30.55,0,0,0,274.18,344.57Z"/>
		<path d="M309.47,337.59c-4.5,1-7.48,3.9-9.5,8.09a13.66,13.66,0,0,0,10.28,1.78c5.63-1.32,9.67-5.08,13.78-9C319.1,337.41,314.35,336.47,309.47,337.59Z"/>
		<path d="M337.51,297s-.07-.08-.14-.17c-1,.39-2,.77-3.05,1.19-3.57,1.48-7,3.18-9.71,6.05-3.1,3.29-4,7.22-3.48,11.64a13.76,13.76,0,0,0,11.36-5.94C335.23,306,336.52,301.56,337.51,297Z"/>
		<path d="M286.41,366.4c4.43.4,8.68-.54,12.89-1.73.07,0,.11-.13.2-.23-3.05-2.62-6.11-5.19-9.81-6.82a13.84,13.84,0,0,0-14.54,1.57c.13.25.22.44.33.62A13.81,13.81,0,0,0,286.41,366.4Z"/>
		<path d="M309,313.54c-1.25,1.59-2.57,3.16-3.77,4.81a20.67,20.67,0,0,0-4.17,9.34,13.88,13.88,0,0,0,2.83,10.17,2.33,2.33,0,0,0,.27,0l.32-.17a13.52,13.52,0,0,0,6.38-9.4c.86-5-.22-9.83-1.63-14.59C309.23,313.63,309.14,313.61,309,313.54Z"/>
		<path d="M294.51,329.54c-2.87,2.46-5.46,5.15-6.82,8.79s-.89,7.1.55,10.62a13.83,13.83,0,0,0,8.18-6.48c1.95-3.48,2.44-7.31,2.51-11.22,0-1.63,0-3.26-.06-4.88l-.28-.07C297.23,327.38,295.82,328.41,294.51,329.54Z"/>
		<path d="M122.63,278.38l-.14.12a10.87,10.87,0,0,1-.39,1.18,35,35,0,0,0-3.38,11.44A14,14,0,0,0,124,303.53c.49-.56,1-1.08,1.44-1.64,3.45-4.32,3.76-9.11,2-14.17A43.15,43.15,0,0,0,122.63,278.38Z"/>
		<path d="M138.36,356.6a26.07,26.07,0,0,0,10.24,1.61,13.74,13.74,0,0,0,10.27-5.74,13.82,13.82,0,0,0-10-4c-4.17.14-7.76,1.92-11.24,4-1.3.79-2.57,1.63-3.86,2.45l.12.14C135.38,355.55,136.87,356.1,138.36,356.6Z"/>
		<path d="M133.49,333.14l.41-.09c-.45-5.05-2.6-9-7.06-11.51a29.69,29.69,0,0,0-9.34-3.09c-1.13-.22-2.27-.39-3.58-.6a41.85,41.85,0,0,0,5.81,9.81C123.34,331.92,127.83,334,133.49,333.14Z"/>
		<path d="M136.65,309.77c.48-3.76-.48-7.28-1.82-10.72-.64-1.67-1.41-3.29-2.12-4.93l-.29,0c-2.77,4.71-5.43,9.48-5.43,15.2a13.71,13.71,0,0,0,4.13,9.66A14,14,0,0,0,136.65,309.77Z"/>
		<path d="M167.09,354.11a14.11,14.11,0,0,0,7.53,3.89c1.43-5,.78-9.45-2.53-13.43a30.9,30.9,0,0,0-7.86-6.37c-.86-.53-1.73-1-2.72-1.6a43.45,43.45,0,0,0,1.46,9.95A17.31,17.31,0,0,0,167.09,354.11Z"/>
		<path d="M146.29,345.68c-2-4.19-5-7.05-9.5-8.09-4.87-1.12-9.63-.18-14.56.82,4.11,4,8.15,7.73,13.78,9A13.66,13.66,0,0,0,146.29,345.68Z"/>
		<path d="M125.14,315.74c.49-4.42-.39-8.35-3.49-11.64-2.7-2.87-6.14-4.57-9.71-6.05-1-.42-2-.8-3-1.19-.07.09-.14.14-.13.17,1,4.53,2.28,8.94,5,12.77A13.73,13.73,0,0,0,125.14,315.74Z"/>
		<path d="M147,364.67c4.21,1.19,8.47,2.13,12.89,1.73a13.83,13.83,0,0,0,10.94-6.59c.11-.18.19-.37.32-.62a13.83,13.83,0,0,0-14.53-1.57c-3.7,1.63-6.76,4.2-9.81,6.82C146.85,364.54,146.89,364.65,147,364.67Z"/>
		<path d="M141.77,337.66a2.55,2.55,0,0,0,.33.17,1.84,1.84,0,0,0,.27,0,13.87,13.87,0,0,0,2.82-10.17,20.67,20.67,0,0,0-4.17-9.34c-1.19-1.65-2.51-3.22-3.77-4.81-.13.07-.21.09-.23.13-1.41,4.76-2.48,9.57-1.62,14.59A13.54,13.54,0,0,0,141.77,337.66Z"/>
		<path d="M151.76,329.54c-1.32-1.13-2.72-2.16-4.08-3.24l-.29.07c0,1.62-.09,3.25-.06,4.88.07,3.91.57,7.74,2.51,11.22A13.85,13.85,0,0,0,158,349a14,14,0,0,0,.55-10.62C157.22,334.69,154.62,332,151.76,329.54Z"/>
		<path d="M366.05,107.91H324.12v4h37.93v132.5c0,81.15-69.67,149.66-139,181.8-69.33-32.14-139-100.65-139-181.8V111.91h58.24l4-4H80.05v136.5c0,83.25,71.4,153.31,142.16,185.82l.84.39.83-.39c70.77-32.51,142.17-102.57,142.17-185.82Z"/>
	</g>
</svg>